<svg xmlns="http://www.w3.org/2000/svg" width="22" height="17" viewBox="0 0 22 17">
  <g id="Vector_Smart_Object" data-name="Vector Smart Object" transform="translate(-1090 -3337)">
    <g id="Vector_Smart_Object-2" data-name="Vector Smart Object" transform="translate(1089.773 3334.456)">
      <path id="Path_3" data-name="Path 3" d="M22.227,4.556a9.406,9.406,0,0,1-2.594.676,4.354,4.354,0,0,0,1.986-2.374A9.345,9.345,0,0,1,18.752,3.9a4.615,4.615,0,0,0-3.293-1.355,4.407,4.407,0,0,0-4.514,4.292,4.083,4.083,0,0,0,.118.978,13.051,13.051,0,0,1-9.3-4.485,4.119,4.119,0,0,0-.61,2.159A4.237,4.237,0,0,0,3.156,9.06a4.673,4.673,0,0,1-2.044-.537v.054a4.357,4.357,0,0,0,3.619,4.209,4.736,4.736,0,0,1-2.038.073,4.5,4.5,0,0,0,4.217,2.98A9.354,9.354,0,0,1,1.3,17.675a9.155,9.155,0,0,1-1.076-.06,13.252,13.252,0,0,0,6.919,1.928A12.432,12.432,0,0,0,19.988,7.333q0-.281-.015-.556a8.835,8.835,0,0,0,2.253-2.221"/>
    </g>
    <path id="Color_Overlay" data-name="Color Overlay" d="M1090,3352.072a9.257,9.257,0,0,0,1.076.059,9.356,9.356,0,0,0,5.606-1.836,4.5,4.5,0,0,1-4.217-2.981,4.646,4.646,0,0,0,.851.078,4.714,4.714,0,0,0,1.188-.15,4.358,4.358,0,0,1-3.619-4.209v-.054a4.676,4.676,0,0,0,2.044.537,4.237,4.237,0,0,1-2.007-3.572,4.117,4.117,0,0,1,.61-2.159,13.056,13.056,0,0,0,9.3,4.485,4.078,4.078,0,0,1-.118-.978,4.407,4.407,0,0,1,4.514-4.291,4.616,4.616,0,0,1,3.293,1.355,9.381,9.381,0,0,0,2.867-1.041,4.354,4.354,0,0,1-1.986,2.373,9.386,9.386,0,0,0,2.594-.676,8.846,8.846,0,0,1-2.254,2.221c.01.183.015.369.015.555a12.433,12.433,0,0,1-12.843,12.21A13.255,13.255,0,0,1,1090,3352.072Z" fill="#fff"/>
  </g>
</svg>
