<svg xmlns="http://www.w3.org/2000/svg" width="180" height="83.361" viewBox="0 0 180 83.361">
  <g id="Kształt_6_kopia_2" data-name="Kształt 6 kopia 2" transform="translate(0.878 -0.003)">
    <text id="DREAMVOYAGE" transform="translate(-0.878 74.364)" fill="#fff" font-size="30" font-family="Oswald-Bold, Oswald" font-weight="700"><tspan x="0" y="0">DREAMVOYAGE</tspan></text>
    <path id="Kształt_6_kopia_2-2" data-name="Kształt 6 kopia 2" d="M59,16.438c.784,1.174,3.173,4.514,3.173,4.514,2.072,4.482,9.151,5.472,18.474,4.388a14.1,14.1,0,0,1,1.364-23.45,13.949,13.949,0,0,1,19.107,5.145,14.112,14.112,0,0,1-2.7,17.432c0,.155,0,.313,0,.47,0,.12,0,.24-.005.36,9.306,1.1,16.378.119,18.444-4.377,0,0,2.375-3.34,3.154-4.513-1.977,10.778-9.009,17.208-30.312,13.514A65.058,65.058,0,0,1,78.627,31C65.521,31,60.6,25.136,59,16.438ZM84.457,6.15a9.161,9.161,0,0,0-3.328,12.481,9.067,9.067,0,0,0,12.419,3.344A9.143,9.143,0,0,0,88.994,4.924,9.012,9.012,0,0,0,84.457,6.15Z" fill="#fff"/>
  </g>
</svg>
